<svg width="30" height="30" viewBox="0 0 30 30" fill="none" xmlns="http://www.w3.org/2000/svg">
<path fill-rule="evenodd" clip-rule="evenodd" d="M10.7073 14.293C10.7072 14.2931 10.7071 14.2931 10.7071 14.2932C10.3166 14.6837 10.3166 15.3169 10.7071 15.7074L17.0711 22.0714C17.4616 22.4619 18.0948 22.4619 18.4853 22.0714C18.8758 21.6808 18.8758 21.0477 18.4853 20.6572L12.8284 15.0003L18.4854 9.34329C18.876 8.95277 18.876 8.3196 18.4854 7.92908C18.0949 7.53855 17.4617 7.53855 17.0712 7.92908L10.7073 14.293Z" fill="#201E2B"/>
<path fill-rule="evenodd" clip-rule="evenodd" d="M10.7073 14.293C10.7072 14.2931 10.7071 14.2931 10.7071 14.2932C10.3166 14.6837 10.3166 15.3169 10.7071 15.7074L17.0711 22.0714C17.4616 22.4619 18.0948 22.4619 18.4853 22.0714C18.8758 21.6808 18.8758 21.0477 18.4853 20.6572L12.8284 15.0003L18.4854 9.34329C18.876 8.95277 18.876 8.3196 18.4854 7.92908C18.0949 7.53855 17.4617 7.53855 17.0712 7.92908L10.7073 14.293Z" fill="black" fill-opacity="0.2"/>
<path fill-rule="evenodd" clip-rule="evenodd" d="M10.7073 14.293C10.7072 14.2931 10.7071 14.2931 10.7071 14.2932C10.3166 14.6837 10.3166 15.3169 10.7071 15.7074L17.0711 22.0714C17.4616 22.4619 18.0948 22.4619 18.4853 22.0714C18.8758 21.6808 18.8758 21.0477 18.4853 20.6572L12.8284 15.0003L18.4854 9.34329C18.876 8.95277 18.876 8.3196 18.4854 7.92908C18.0949 7.53855 17.4617 7.53855 17.0712 7.92908L10.7073 14.293Z" fill="black" fill-opacity="0.2"/>
<path fill-rule="evenodd" clip-rule="evenodd" d="M10.7073 14.293C10.7072 14.2931 10.7071 14.2931 10.7071 14.2932C10.3166 14.6837 10.3166 15.3169 10.7071 15.7074L17.0711 22.0714C17.4616 22.4619 18.0948 22.4619 18.4853 22.0714C18.8758 21.6808 18.8758 21.0477 18.4853 20.6572L12.8284 15.0003L18.4854 9.34329C18.876 8.95277 18.876 8.3196 18.4854 7.92908C18.0949 7.53855 17.4617 7.53855 17.0712 7.92908L10.7073 14.293Z" fill="black" fill-opacity="0.2"/>
<path fill-rule="evenodd" clip-rule="evenodd" d="M10.7073 14.293C10.7072 14.2931 10.7071 14.2931 10.7071 14.2932C10.3166 14.6837 10.3166 15.3169 10.7071 15.7074L17.0711 22.0714C17.4616 22.4619 18.0948 22.4619 18.4853 22.0714C18.8758 21.6808 18.8758 21.0477 18.4853 20.6572L12.8284 15.0003L18.4854 9.34329C18.876 8.95277 18.876 8.3196 18.4854 7.92908C18.0949 7.53855 17.4617 7.53855 17.0712 7.92908L10.7073 14.293Z" fill="black" fill-opacity="0.2"/>
<path fill-rule="evenodd" clip-rule="evenodd" d="M10.7073 14.293C10.7072 14.2931 10.7071 14.2931 10.7071 14.2932C10.3166 14.6837 10.3166 15.3169 10.7071 15.7074L17.0711 22.0714C17.4616 22.4619 18.0948 22.4619 18.4853 22.0714C18.8758 21.6808 18.8758 21.0477 18.4853 20.6572L12.8284 15.0003L18.4854 9.34329C18.876 8.95277 18.876 8.3196 18.4854 7.92908C18.0949 7.53855 17.4617 7.53855 17.0712 7.92908L10.7073 14.293Z" fill="black" fill-opacity="0.2"/>
</svg>
